[img]http://hostpicturefree.com/images/bannerlnl.gif[/img]

[b]Cover:[/b]

[img]http://ia.media-imdb.com/images/M/MV5BNzMxNTExOTkyMF5BMl5BanBnXkFtZTcwMzEyNDc0OA@@._V1_SX214_.jpg[/img]

[b]Release info:[/b]

[code]General
Format                                   : Matroska
Format version                           : Version 4 / Version 2
File size                                : 693 MiB
Duration                                 : 1h 41mn
Overall bit rate                         : 957 Kbps
Movie name                               : Wreck it Ralph 2012 DVDScr English


Video
ID                                       : 1
Format                                   : MPEG-4 Visual
Format profile                           : Advanced Simple@L5
Format settings, BVOP                    : Yes
Format settings, QPel                    : No
Format settings, GMC                     : No warppoints
Format settings, Matrix                  : Default (H.263)
Codec ID                                 : V_MS/VFW/FOURCC / XVID
Codec ID/Hint                            : XviD
Duration                                 : 1h 41mn
Bit rate                                 : 810 Kbps
Width                                    : 640 pixels
Height                                   : 270 pixels
Display aspect ratio                     : 2.40:1
Frame rate mode                          : Constant
Frame rate                               : 29.970 fps
Color space                              : YUV
Chroma subsampling                       : 4:2:0
Bit depth                                : 8 bits
Scan type                                : Progressive
Compression mode                         : Lossy
Bits/(Pixel*Frame)                       : 0.156
Stream size                              : 587 MiB (85%)
Title                                    : Wreck it Ralph 2012 DVDScr English
Writing library                          : XviD 64
Language                                 : English
Default                                  : Yes
Forced                                   : No

Audio
ID                                       : 2
Format                                   : MPEG Audio
Format version                           : Version 1
Format profile                           : Layer 3
Mode                                     : Joint stereo
Codec ID                                 : A_MPEG/L3
Codec ID/Hint                            : MP3
Duration                                 : 1h 41mn
Bit rate mode                            : Constant
Bit rate                                 : 128 Kbps
Channel(s)                               : 2 channels
Sampling rate                            : 48.0 KHz
Compression mode                         : Lossy
Stream size                              : 92.7 MiB (13%)
Title                                    : Wreck it Ralph 2012 DVDScr English
Language                                 : English
Default                                  : Yes
Forced                                   : No



Source:
credit to original movie ripper MGD (Thanks)[/code]

[b]IMDB Info:[/b]

[code]A video game villain wants to be a hero and sets out to fulfill his dream, but his quest brings havoc to the whole arcade where he lives.

Director: Rich Moore
Writers: Rich Moore (story), Phil Johnston (story), 
Stars: John C. Reilly, Jack McBrayer, Jane Lynch 

Genres: Animation | Adventure | Comedy | Family[/code]
 
http://www.imdb.com/title/tt1772341/

[b]Screen Shot:[/b]

[img]http://www.shotpix.com/images/22483613599019121060.png[/img]
[img]http://www.shotpix.com/images/10346095385106965998.png[/img]
[img]http://www.shotpix.com/images/62759485902110659983.png[/img]
[img]http://www.shotpix.com/images/50070094039713119071.png[/img]